<?xml version="1.0" encoding="UTF-8"?>
<svg id="Layer_2" data-name="Layer 2" xmlns="http://www.w3.org/2000/svg" viewBox="0 0 795.84 798.99">
  <g id="Layer_1-2" data-name="Layer 1">
    <g>
      <path d="M19.69,357.33c3.37.63,6.64.59,9.79-.12,3.15-.71,6.02-1.98,8.6-3.8,2.58-1.82,4.75-4.12,6.52-6.88,1.77-2.76,2.98-5.91,3.64-9.46.65-3.5.66-6.85.02-10.03-.64-3.18-1.84-6.08-3.62-8.7-1.77-2.61-4-4.8-6.66-6.58-2.67-1.77-5.69-2.97-9.06-3.6-3.37-.63-6.62-.6-9.75.1-3.13.69-5.99,1.94-8.58,3.74-2.59,1.8-4.75,4.08-6.48,6.85-1.72,2.77-2.92,5.93-3.58,9.47-.66,3.55-.68,6.92-.07,10.12.61,3.2,1.81,6.11,3.58,8.72,1.77,2.61,3.98,4.8,6.63,6.57,2.65,1.77,5.66,2.97,9.03,3.59ZM10.9,330.25c.35-1.9.99-3.58,1.91-5.02.92-1.44,2.08-2.61,3.47-3.52,1.4-.9,2.98-1.49,4.73-1.77,1.75-.28,3.62-.23,5.61.14,2.73.51,5.01,1.46,6.85,2.85,1.84,1.4,3.15,3.16,3.92,5.29.77,2.13.91,4.48.44,7.03-.35,1.9-.99,3.59-1.91,5.05-.92,1.46-2.08,2.65-3.48,3.55-1.4.9-2.99,1.49-4.76,1.77-1.77.27-3.7.22-5.78-.17-2.68-.5-4.93-1.46-6.74-2.9-1.81-1.43-3.1-3.2-3.84-5.31-.75-2.11-.89-4.44-.41-6.99Z"/>
      <path d="M66.61,270.42l-17.47-7.32.27-.64,22.43-4.52,5.28-12.6-23.53,5.63c.2-1.22.29-2.42.23-3.58-.12-2.72-.87-5.12-2.24-7.2-1.37-2.08-3.36-3.66-5.95-4.75-2.56-1.07-5.05-1.38-7.49-.92-2.43.46-4.66,1.56-6.69,3.32-2.02,1.75-3.64,4.07-4.84,6.95l-3.16,7.55h0l-4.57,10.9,43.16,18.08,4.57-10.9ZM34.05,249.76c.73-1.74,1.75-2.9,3.07-3.47,1.31-.57,2.7-.55,4.16.06,1.5.63,2.5,1.61,2.99,2.94.49,1.33.37,2.86-.36,4.61l-2.5,5.97-9.86-4.13,2.5-5.97Z"/>
      <rect x="69.7" y="177.93" width="11.81" height="46.79" transform="translate(-135.16 158.6) rotate(-57.96)"/>
      <polygon points="126 171.94 126 171.94 141.06 154.68 133.55 148.13 118.49 165.39 111.68 159.44 125.17 143.98 117.86 137.6 104.37 153.07 98.25 147.73 113.09 130.72 105.58 124.17 90.74 141.18 90.74 141.18 82.97 150.08 118.23 180.84 126 171.94"/>
      <polygon points="174.49 124.63 158.73 104.02 190.74 112.2 197.72 106.87 169.29 69.7 159.9 76.88 176.03 97.97 143.23 89.63 136.68 94.64 165.11 131.81 174.49 124.63"/>
      <polygon points="221.9 50.96 237.81 83.95 248.45 78.82 232.54 45.83 245.5 39.58 241.09 30.42 204.64 47.99 209.06 57.15 221.9 50.96"/>
      <path d="M300.73,50.94l16.85-4.2,4.71,7.26,12.04-3.01-28.81-41.04-11.08,2.77-6.34,49.81,11.85-2.96.79-8.63ZM312.18,38.42l-10.54,2.63,1.51-16.54,9.03,13.91Z"/>
      <polygon points="377.22 46.74 377.22 46.74 397.32 45.74 396.82 35.59 376.72 36.59 374.91 0 363.11 .58 365.42 47.32 377.22 46.74"/>
      <polygon points="482.03 36.62 498.35 40.75 493.7 59.11 505.15 62.01 516.64 16.65 505.18 13.75 500.79 31.09 484.48 26.96 488.87 9.62 477.42 6.72 465.93 52.08 477.39 54.98 482.03 36.62"/>
      <polygon points="548.46 79.44 569.08 89.4 573.42 80.43 552.8 70.46 556.73 62.32 575.21 71.25 579.43 62.52 560.95 53.59 564.48 46.28 584.81 56.1 589.14 47.12 568.82 37.3 568.82 37.3 558.18 32.16 537.82 74.3 548.46 79.44 548.46 79.44"/>
      <path d="M611.67,107.11l13.81,10.52-2.72,8.22,9.87,7.52,14.03-48.14-9.08-6.92-42.85,26.18,9.71,7.4,7.23-4.78ZM619.95,101.64l13.86-9.16-5.21,15.75-8.64-6.59Z"/>
      <polygon points="662.76 164.13 676.12 179.19 683.72 172.44 670.36 157.38 697.77 133.08 689.93 124.24 654.92 155.29 662.76 164.13 662.76 164.13"/>
      <rect x="693.73" y="190.89" width="46.79" height="11.81" transform="translate(7.93 420.51) rotate(-32.85)"/>
      <polygon points="722.51 255.05 746.38 244.88 730.52 273.87 733.96 281.95 777.01 263.61 772.38 252.74 747.96 263.15 764.16 233.43 760.93 225.84 717.88 244.18 722.51 255.05"/>
      <path d="M766.89,309.05c-3.37.63-6.4,1.83-9.07,3.6-2.67,1.77-4.87,3.96-6.6,6.56s-2.92,5.51-3.55,8.71c-.63,3.21-.63,6.54.01,10,.88,4.71,2.63,8.66,5.25,11.85,2.63,3.18,6.03,5.41,10.21,6.7,4.18,1.28,9.01,1.41,14.51.39l1.75-.33-4.63-24.92-9.54,1.77,1.99,12.44c-.58-.08-1.15-.19-1.69-.34-1.99-.57-3.61-1.65-4.86-3.23-1.26-1.58-2.12-3.62-2.58-6.13-.47-2.51-.33-4.83.42-6.96.75-2.13,2.03-3.92,3.87-5.38,1.83-1.46,4.09-2.44,6.77-2.94,2.64-.49,5.07-.35,7.29.42,2.22.77,4.07,2.05,5.55,3.84,1.47,1.78,2.44,3.91,2.9,6.38s.39,4.71-.19,6.75c-.59,2.03-1.66,4-3.23,5.9l9.23,6.34c2.17-2.55,3.67-5.63,4.5-9.23.83-3.6.86-7.46.1-11.56-.64-3.46-1.84-6.61-3.6-9.43-1.76-2.83-3.92-5.19-6.48-7.09-2.57-1.9-5.42-3.21-8.55-3.95-3.14-.74-6.39-.79-9.76-.17Z"/>
      <path d="M75.13,548.36l-50.01,4.55,5.44,10.93,8.6-1.09,7.74,15.54-6.07,6.17,5.53,11.11,33.86-36.99-5.09-10.22ZM49.01,561.5l16.48-2.09-11.64,11.82-4.84-9.73Z"/>
      <path d="M126.59,627.13l-5.29-6.24h0s-.8-.94-.8-.94l-.78-.92h0s-6.06-7.15-6.06-7.15l-35.68,30.27,7.64,9.01,14.44-12.25.45.53-6.14,22.04,8.84,10.42,5.64-23.52c1,.74,2.03,1.35,3.09,1.83,2.48,1.12,4.96,1.55,7.44,1.27,2.47-.28,4.78-1.33,6.93-3.15,2.11-1.79,3.52-3.88,4.21-6.26.69-2.38.72-4.87.07-7.46-.65-2.6-1.98-5.09-4-7.47ZM120.49,635.81c-.09,1.43-.73,2.66-1.94,3.68-1.24,1.05-2.57,1.5-3.97,1.34-1.41-.16-2.72-.96-3.95-2.41l-4.18-4.93,8.15-6.92,4.18,4.93c1.22,1.44,1.79,2.88,1.71,4.31Z"/>
      <polygon points="163.14 677.97 174.6 686.45 152.82 715.9 162.32 722.93 184.1 693.47 195.67 702.03 201.71 693.86 169.18 669.8 163.14 677.97"/>
      <path d="M248.42,729.83c1.08-.15,2.36.09,3.85.75,1.61.7,2.93,1.67,3.96,2.88,1.03,1.22,1.9,2.77,2.6,4.67l9.91-3.88c-.84-2.58-2.36-4.97-4.54-7.17-2.18-2.2-4.83-3.98-7.93-5.34-3.1-1.36-6.05-2.03-8.84-2.03-2.79,0-5.27.71-7.44,2.11-2.17,1.4-3.85,3.46-5.03,6.16-.95,2.18-1.38,4.14-1.28,5.89.1,1.75.53,3.38,1.29,4.88.76,1.51,1.7,2.89,2.83,4.15,1.13,1.26,2.31,2.45,3.55,3.57,1.24,1.12,2.34,2.17,3.3,3.17.96,1,1.67,1.98,2.13,2.95.46.97.47,1.98,0,3.03-.48,1.09-1.34,1.73-2.61,1.92-1.26.19-2.8-.11-4.61-.9-2.14-.93-3.87-2.19-5.19-3.78-1.32-1.59-2.38-3.46-3.16-5.63l-9.91,3.88c1.15,3.29,2.8,6.06,4.94,8.32,2.14,2.25,5,4.17,8.59,5.73,5.4,2.36,10.13,3.01,14.2,1.96,4.06-1.06,7.02-3.7,8.87-7.94.95-2.18,1.4-4.19,1.34-6.04-.06-1.85-.46-3.54-1.21-5.07-.75-1.53-1.69-2.92-2.82-4.18-1.13-1.26-2.3-2.45-3.52-3.56-1.22-1.11-2.32-2.17-3.3-3.17-.98-1-1.7-1.96-2.17-2.86-.47-.9-.49-1.84-.07-2.8.42-.97,1.17-1.53,2.25-1.68Z"/>
      <path d="M369.6,768.51c.72-1.64,1.68-3.02,2.86-4.14,1.18-1.13,2.59-1.97,4.23-2.52,1.64-.55,3.38-.78,5.22-.68,2.15.11,4.02.57,5.61,1.36,1.59.79,2.92,1.83,4,3.12l8.33-7.55c-2.13-2.14-4.64-3.87-7.52-5.19-2.88-1.32-6.17-2.08-9.86-2.28-3.56-.19-6.88.25-9.95,1.32-3.08,1.07-5.8,2.62-8.18,4.65-2.38,2.03-4.26,4.48-5.64,7.33-1.39,2.86-2.17,6-2.35,9.43-.18,3.47.27,6.71,1.37,9.72,1.1,3.01,2.72,5.66,4.86,7.96s4.7,4.14,7.67,5.53c2.97,1.39,6.23,2.18,9.79,2.37,3.87.21,7.27-.2,10.21-1.21,2.94-1.01,5.61-2.47,8-4.37l-7.49-8.33c-1.3,1.17-2.79,2.04-4.47,2.64-1.68.59-3.62.83-5.82.71-1.89-.1-3.61-.52-5.15-1.27-1.55-.74-2.85-1.74-3.91-2.98-1.06-1.25-1.86-2.72-2.41-4.42-.55-1.7-.77-3.61-.65-5.72.11-2.02.52-3.85,1.25-5.49Z"/>
      <polygon points="485.58 779.16 463.04 783.2 461.44 774.3 481.65 770.68 479.94 761.13 459.73 764.75 458.3 756.76 480.52 752.78 478.77 742.97 456.55 746.95 456.55 746.94 444.92 749.03 453.17 795.09 464.79 793.01 464.79 793.01 487.34 788.97 485.58 779.16"/>
      <polygon points="550.64 717.61 561.41 741.88 531.45 726.12 523.91 729.47 542.89 772.24 553.69 767.45 543.17 743.73 572.39 759.15 580.42 755.59 561.44 712.82 550.64 717.61"/>
      <polygon points="638.71 672.7 632.48 664.67 600.49 689.44 606.72 697.47 617.99 688.74 640.41 717.71 649.76 710.47 627.33 681.51 638.71 672.7"/>
      <polygon points="700.19 647.37 693.19 641.64 706.18 625.76 698.67 619.61 685.68 635.5 679.39 630.36 693.68 612.89 685.97 606.58 671.68 624.05 671.68 624.05 664.2 633.2 700.42 662.82 706.35 655.57 706.35 655.57 722.4 635.95 714.68 629.64 700.19 647.37"/>
      <path d="M746.89,553.76c.04-2.73-.56-5.17-1.81-7.32-1.25-2.16-3.13-3.85-5.66-5.09-2.49-1.22-4.96-1.67-7.42-1.36-2.46.31-4.75,1.28-6.87,2.91-2.12,1.63-3.87,3.85-5.25,6.65l-3.61,7.35h0s-5.21,10.6-5.21,10.6l42.01,20.62,5.21-10.6-17-8.35.31-.62,22.66-3.18,6.02-12.26-23.82,4.22c.28-1.21.43-2.4.45-3.56ZM727,554.95c.83-1.7,1.92-2.79,3.27-3.29,1.34-.49,2.73-.39,4.15.31,1.46.72,2.4,1.75,2.81,3.11.41,1.36.2,2.88-.63,4.58l-2.85,5.81-9.6-4.71,2.85-5.81Z"/>
      <circle cx="772.3" cy="446.87" r="13.69" transform="translate(-89.78 676.99) rotate(-45)"/>
      <circle cx="23.32" cy="446.87" r="13.69" transform="translate(-309.15 147.37) rotate(-45)"/>
      <path d="M672.32,514.4c15.55-36.76,23.43-75.78,23.43-115.98s-7.88-79.23-23.43-115.98c-15.01-35.48-36.49-67.34-63.83-94.69-27.35-27.35-59.21-48.83-94.69-63.83-36.76-15.55-75.78-23.43-115.98-23.43s-79.23,7.88-115.98,23.43c-35.48,15.01-67.34,36.49-94.69,63.83-27.35,27.35-48.83,59.21-63.83,94.69-15.55,36.76-23.43,75.78-23.43,115.98s7.88,79.23,23.43,115.98c15.01,35.48,36.49,67.34,63.83,94.69,27.35,27.35,59.21,48.83,94.69,63.83,36.76,15.55,75.78,23.43,115.98,23.43s79.23-7.88,115.98-23.43c35.48-15.01,67.34-36.49,94.69-63.83,27.35-27.35,48.83-59.21,63.83-94.69ZM606.3,550.28c1.01-1.39,2.01-2.78,3-4.19-.98,1.41-1.99,2.8-3,4.19ZM609.92,545.2c.95-1.36,1.88-2.73,2.8-4.12-.92,1.38-1.85,2.75-2.8,4.12ZM613.42,540.02c.88-1.34,1.75-2.68,2.61-4.04-.86,1.36-1.73,2.7-2.61,4.04ZM616.79,534.76c.82-1.32,1.63-2.64,2.43-3.97-.8,1.33-1.61,2.65-2.43,3.97ZM620.03,529.42c.76-1.29,1.52-2.59,2.26-3.9-.74,1.31-1.5,2.61-2.26,3.9ZM623.15,523.99c.71-1.27,1.41-2.54,2.1-3.83-.69,1.28-1.39,2.56-2.1,3.83ZM626.15,518.47c.66-1.25,1.31-2.49,1.94-3.75-.64,1.26-1.29,2.5-1.94,3.75ZM629.01,512.87c.61-1.22,1.21-2.44,1.79-3.67-.59,1.23-1.19,2.45-1.79,3.67ZM631.73,507.2c.56-1.2,1.11-2.4,1.65-3.6-.54,1.21-1.1,2.41-1.65,3.6ZM634.33,501.46c.51-1.17,1.02-2.35,1.52-3.53-.5,1.18-1.01,2.36-1.52,3.53ZM636.78,495.64c.47-1.15.94-2.31,1.39-3.47-.45,1.16-.92,2.31-1.39,3.47ZM639.09,489.75c.43-1.13.86-2.27,1.27-3.41-.41,1.14-.84,2.27-1.27,3.41ZM641.26,483.8c.39-1.11.78-2.23,1.16-3.35-.38,1.12-.77,2.23-1.16,3.35ZM643.29,477.77c.35-1.09.71-2.18,1.05-3.28-.34,1.1-.7,2.19-1.05,3.28ZM645.17,471.69c.32-1.08.64-2.15.95-3.23-.3,1.08-.63,2.16-.95,3.23ZM646.91,465.55c.28-1.06.58-2.12.85-3.18-.27,1.07-.56,2.12-.85,3.18ZM648.49,459.34c.25-1.04.51-2.08.75-3.13-.24,1.05-.5,2.09-.75,3.13ZM649.93,453.08c.22-1.03.45-2.05.66-3.08-.21,1.03-.44,2.06-.66,3.08ZM651.21,446.76c.19-1.01.39-2.02.57-3.03-.18,1.01-.38,2.02-.57,3.03ZM652.33,440.37c.16-.99.33-1.98.48-2.97-.15.99-.32,1.98-.48,2.97ZM653.31,433.93c.13-.97.28-1.93.4-2.91-.12.97-.27,1.94-.4,2.91ZM654.12,427.42c.11-.94.22-1.88.32-2.83-.1.95-.21,1.88-.32,2.83ZM654.77,420.8c.08-.9.17-1.79.23-2.68-.07.9-.16,1.79-.23,2.68ZM655.27,414.02c.05-.81.11-1.61.15-2.42-.04.81-.1,1.61-.15,2.42ZM655.6,406.91c.02-.63.05-1.25.07-1.88-.02.63-.05,1.25-.07,1.88ZM609.31,250.75c-.99-1.42-2-2.82-3.02-4.22,1.02,1.4,2.03,2.8,3.02,4.22ZM655.67,391.8c-.02-.63-.05-1.25-.07-1.88.02.63.05,1.25.07,1.88ZM655.42,385.24c-.04-.81-.1-1.61-.15-2.42.05.81.11,1.61.15,2.42ZM655.01,378.71c-.07-.89-.16-1.77-.23-2.65.08.89.16,1.77.23,2.65ZM654.44,372.24c-.09-.93-.21-1.85-.31-2.78.1.93.22,1.85.31,2.78ZM653.71,365.81c-.12-.96-.26-1.91-.4-2.87.13.96.27,1.91.4,2.87ZM652.82,359.43c-.15-.99-.32-1.97-.48-2.95.16.98.33,1.96.48,2.95ZM651.78,353.1c-.18-1.01-.38-2.01-.57-3.01.19,1,.39,2.01.57,3.01ZM650.59,346.84c-.21-1.03-.44-2.05-.66-3.07.22,1.02.45,2.05.66,3.07ZM649.24,340.62c-.24-1.05-.5-2.08-.75-3.12.25,1.04.51,2.08.75,3.12ZM647.75,334.47c-.27-1.06-.56-2.12-.85-3.17.28,1.06.57,2.11.85,3.17ZM646.12,328.37c-.3-1.08-.63-2.16-.95-3.23.32,1.08.64,2.15.95,3.23ZM644.34,322.35c-.34-1.11-.7-2.2-1.05-3.3.36,1.1.71,2.2,1.05,3.3ZM642.42,316.38c-.38-1.13-.77-2.24-1.16-3.36.39,1.12.79,2.24,1.16,3.36ZM640.37,310.49c-.42-1.15-.85-2.29-1.28-3.43.43,1.14.87,2.28,1.28,3.43ZM638.17,304.67c-.46-1.17-.93-2.33-1.4-3.49.47,1.16.95,2.32,1.4,3.49ZM635.85,298.92c-.5-1.19-1.01-2.37-1.53-3.55.51,1.18,1.03,2.36,1.53,3.55ZM633.39,293.24c-.54-1.21-1.1-2.42-1.66-3.62.56,1.2,1.12,2.41,1.66,3.62ZM630.8,287.64c-.59-1.24-1.2-2.47-1.8-3.7.61,1.23,1.21,2.46,1.8,3.7ZM628.09,282.12c-.64-1.26-1.29-2.52-1.95-3.77.66,1.25,1.31,2.5,1.95,3.77ZM625.26,276.68c-.69-1.29-1.4-2.57-2.11-3.85.71,1.28,1.42,2.56,2.11,3.85ZM622.3,271.32c-.75-1.32-1.51-2.62-2.28-3.92.77,1.3,1.53,2.61,2.28,3.92ZM619.22,266.05c-.8-1.34-1.62-2.67-2.45-4,.83,1.32,1.65,2.66,2.45,4ZM616.03,260.86c-.86-1.37-1.74-2.72-2.63-4.07.89,1.35,1.77,2.7,2.63,4.07ZM612.73,255.76c-.93-1.39-1.87-2.77-2.82-4.14.95,1.37,1.89,2.75,2.82,4.14ZM139.87,398.42c0-142.46,115.48-257.94,257.94-257.94,76.71,0,145.59,33.5,192.83,86.65-45.89-51.6-112.2-84.66-186.25-86.54,68.16,3.45,122.36,59.81,122.36,128.83s-57.75,129-129,129h0c-71.24,0-129,57.75-129,129s54.77,125.95,123.42,128.87c-139.86-3-252.31-117.29-252.31-257.87ZM605.78,245.84c-1.06-1.44-2.14-2.87-3.23-4.29,1.09,1.42,2.17,2.85,3.23,4.29ZM602.15,241.02c-1.13-1.47-2.28-2.92-3.44-4.36,1.16,1.44,2.31,2.9,3.44,4.36ZM598.42,236.29c-1.21-1.49-2.43-2.97-3.67-4.43,1.24,1.46,2.46,2.94,3.67,4.43ZM594.58,231.66c-1.28-1.51-2.58-3.01-3.9-4.49,1.32,1.48,2.62,2.98,3.9,4.49ZM397.75,582.17c-30.24,0-54.76-24.52-54.76-54.76s24.52-54.76,54.76-54.76,54.76,24.52,54.76,54.76-24.52,54.76-54.76,54.76ZM403.26,656.29c.38-.02.76-.02,1.13-.04,74.05-1.88,140.34-34.93,186.23-86.53-46.12,51.88-112.86,85.02-187.37,86.57ZM605.78,551.01c-1.05,1.43-2.12,2.85-3.2,4.26,1.08-1.41,2.15-2.83,3.2-4.26ZM602.14,555.83c-1.12,1.46-2.26,2.9-3.42,4.33,1.15-1.43,2.29-2.88,3.42-4.33ZM598.41,560.56c-1.2,1.48-2.41,2.95-3.64,4.4,1.23-1.45,2.44-2.92,3.64-4.4ZM594.57,565.19c-1.28,1.5-2.57,2.99-3.88,4.47,1.31-1.47,2.6-2.96,3.88-4.47Z"/>
      <circle cx="397.75" cy="269.42" r="54.76" transform="translate(-24.61 40.5) rotate(-5.65)"/>
    </g>
  </g>
</svg>